<svg xmlns="http://www.w3.org/2000/svg" viewBox="56 34 68 88" width="68" height="88" style="width: 256px; height: 256px; color: #4da86f" stroke="currentColor" stroke-width="1.2" stroke-linecap="round" stroke-linejoin="round">
  <path d="m94.3 72.6c-0.5 0-0.8 0.4-0.8 0.9v3.5h-3.1v-14.6h26.3c1.2 0 2.3-0.9 2.3-2.3v-19c0-1.2-1-2.3-2.3-2.2h-34.5c-1.2 0-2.2 1.1-2.2 2.1v5.6l-0.1-0.3c-0.7-0.1-1.4-0.1-2.1-0.1-6.4 0-12.5 5.3-12.5 13.3v17.5h-2.9v-3.4c0-0.5-0.4-0.9-0.8-0.9s-0.9 0.4-0.9 0.9v12c0 7.3 5.2 14.3 13.4 16.5l0.1 0.1v13.3h-8.8c-0.5 0-0.9 0.4-0.9 0.8 0 0.5 0.3 0.9 0.8 0.8h25c0.5 0.1 0.9-0.3 0.9-0.8s-0.4-0.8-0.8-0.8h-9.3v-13.3c7.6-1.3 13.9-8.2 14-16.3v-12.4c0-0.5-0.3-0.9-0.8-0.9zm-12.8-31.5c0-0.4 0.3-0.7 0.7-0.7h34.5c0.4 0 0.7 0.3 0.7 0.7v18.7c0 0.4-0.3 0.7-0.7 0.7l-34.5 0.1c-0.4 0-0.7-0.3-0.7-0.8v-18.7zm-14.6 19.6h4.3c0.7 0 1.1-0.2 1.1-0.9 0-0.4-0.3-0.8-0.8-0.8h-4.6c0.3-5.5 5-11.3 10.8-11.2 0.8 0 1.6 0.1 2.3 0.2v11.7c0 1.3 1.1 2.7 2.4 2.7h6.2v2.5h-4.4c-0.8 0-1.4 1.7 0 1.7h4.4v2.4h-4.3c-1.3 0-1.8 1.6-0.4 1.6h4.7v2.4l-21.7 0.1v-2.5h4.4c1.4 0 1.4-1.7 0-1.7h-4.4v-2.4h4.4c1.3 0 1.5-1.6 0-1.6h-4.4v-4.2zm0 14 21.8-0.1v4.1h-21.8v-4zm21.8 5.5v5.4c-0.1 5.7-4.6 10.7-10.9 10.7-5.7 0.1-10.9-4.4-10.9-10.7v-5.3l21.8-0.1zm-7.6 20.2c-1.1 0.2-2.1 0.3-3.3 0.3-8.9 0-15.5-7-15.5-15.1v-6.9h3v6.9c0 6.8 5.4 12.3 12.4 12.3s12.6-5.1 12.7-12.3v-6.8h3v7.1c0.2 6.6-5 13.3-12.3 14.5zm-5.1 2c1 0.1 2.8 0.1 3.5 0v13h-3.5v-13z" fill="currentColor" />
  <path d="m91.4 43.5c-3.5-0.1-7.1 2.9-7.1 6.5 0 3.7 3 7.2 7.1 7.2 3.6 0 6.7-2.8 6.7-7.2 0-3.6-2.8-6.6-6.7-6.5zm-3.2 10.7c0.5-1.2 1.9-2.2 3.1-2.1 1.3-0.1 2.6 0.8 3.2 2.1-1.8 1.5-4.8 1.8-6.3 0zm2.1-5.2c0-0.6 0.6-1.2 1.1-1.2 0.5-0.1 1.2 0.6 1.2 1.2s-0.5 1.2-1.2 1.2-1.1-0.5-1.1-1.2zm5.4 3.8c-0.5-0.7-1.2-1.4-2-2 0.3-0.4 0.5-1.2 0.5-1.8 0-1.2-1.2-2.7-2.8-2.7s-2.9 1.3-2.9 2.7c0 0.4 0.1 1.2 0.5 1.7-0.6 0.4-1.5 1.2-2.1 1.9-2.1-3.7 0.7-7.6 4.6-7.7 3.5 0.1 6.2 4.3 4.2 7.9z" fill="currentColor" />
  <path d="m101.5 48.6h12.2c1.2 0.1 1.2-1.7 0-1.6h-12.2c-1 0-1.2 1.7 0 1.6z" fill="currentColor" />
  <path d="m109.3 51.3h-7.8c-0.9 0-1.3 1.9 0.1 1.9h7.6c1.3 0 1.1-2 0.1-1.9z" fill="currentColor" />
</svg>
