<svg xmlns="http://www.w3.org/2000/svg" viewBox="28 30 102 100" width="102" height="100" style="width: 256px; height: 256px; color: #d08a1f">
  <polyline points="93.6 102 101 109.7 118.2 92.7 123.5 97.9 101 121.3 88 107.6 93.6 101.9" fill="none" stroke="currentColor" stroke-width="4.25" stroke-linecap="round" stroke-linejoin="round" />
  <path d="m88.9 116.9h-31.9c-3.2 0-6.4-2.6-6.4-6.4v-37.2m31.4-28h22.4c3.2 0 6.2 2.4 6.2 6.2v40.5" fill="none" stroke="currentColor" stroke-width="4.25" stroke-linecap="round" stroke-linejoin="round" />
  <line x1="60.7" x2="100.5" y1="73.3" y2="73.3" stroke="currentColor" stroke-width="4.25" stroke-linecap="round" stroke-linejoin="round" />
  <line x1="84.3" x2="100.5" y1="64" y2="64" stroke="currentColor" stroke-width="4.25" stroke-linecap="round" stroke-linejoin="round" />
  <line x1="60.7" x2="100.5" y1="82.4" y2="82.4" stroke="currentColor" stroke-width="4.25" stroke-linecap="round" stroke-linejoin="round" />
  <line x1="60.7" x2="100.5" y1="91.6" y2="91.6" stroke="currentColor" stroke-width="4.25" stroke-linecap="round" stroke-linejoin="round" />
  <line x1="60.7" x2="80.8" y1="100.5" y2="100.5" stroke="currentColor" stroke-width="4.25" stroke-linecap="round" stroke-linejoin="round" />
  <path d="m70.3 35h-28.9c-3.2 0-6.6 2.8-6.6 6.4v16.3c0 3.6 2.9 6.6 7.6 7v8.9l9.8-8.8h18.2c3.4 0 6.2-2.6 6.2-6.8v-16.6c0-3.5-2.7-6.4-6.3-6.4z" fill="none" stroke="currentColor" stroke-width="4.25" stroke-linecap="round" stroke-linejoin="round" />
</svg>
