<svg xmlns="http://www.w3.org/2000/svg" viewBox="28 20 102 106" width="102" height="106" style="width: 256px; height: 256px; color: #5f86e8" stroke="currentColor" stroke-width="1.15" stroke-linecap="round" stroke-linejoin="round">
  <path d="m119.8 39.7h-2.2c-0.3-6.5-5.7-11.8-13.2-12.3v-2.4c0-0.5-0.4-0.9-0.8-0.9s-0.9 0.4-0.9 0.9v2.5c-6.5 0.1-12.7 5.7-13 12.2h-2.4c-1.1-0.1-1.1 1.7 0.1 1.7h2.3c0.4 6.4 5.5 12.9 13 13.4v2.5c0 1.1 1.6 1.3 1.6 0.1v-2.6c7.6-0.2 12.9-5.9 13.3-13.3h2.2c1.3 0.1 1.3-1.9 0-1.8zm-4 0h-3.1v1.7h3.1c-0.3 5.7-5 11-11.4 11.7l0.1-3.1h-1.8v3c-5.2-0.4-10.9-5-11.2-11.6h3.7l-0.3-1.7h-3.3c0.3-5.3 5.8-10.3 11.1-10.6v3.1h1.7v-3.1c5.6 0.1 11.1 5 11.4 10.6z" fill="currentColor" />
  <path d="m104.4 32.1v1.9l-0.1-0.2-1.6-1.7c-3.8 0.5-7.8 3.5-8.2 7.9l0.3 1.4c0.3 4.5 3.9 7.9 7.9 8.2h1.7v-1.7c-3.4 0.2-8.1-2.3-8.1-7.2-0.1-3.9 3.4-6.9 7.3-6.9 3.9 0.1 7.3 3 7.4 6.7 0.3 4.5-3.5 7.4-6.7 7.4l0.1 1.9c4-0.2 8.1-3.2 8.4-8.3v-1.8c-0.4-4.1-4.5-7.3-8.4-7.6z" fill="currentColor" />
  <path d="m103.5 36.7c-2.2 0-4.2 1.8-4.2 4s1.8 3.9 4.1 3.9 4.2-1.6 4.2-3.9-1.8-4-4.1-4zm0 6.2c-1.3 0-2.5-1-2.5-2.3s1-2.5 2.4-2.5 2.7 1.2 2.6 2.5-1.2 2.3-2.5 2.3z" fill="currentColor" />
  <path d="m116.9 82.1h-12.6v-19.8c0-1.3-1.7-1.4-1.7-0.1v19.9h-23.5c-0.4 0-0.8 0.4-0.8 0.8v28.6h-36.3c-1.6 0.1-3-1.3-3-2.8v-72.4c0-1.2 1.3-2.5 2.7-2.5l46.2-0.1c1.2 0.1 1.4-1.7 0.1-1.7h-46.3c-2.1 0-4.3 2-4.3 4.1v72.4c0 2.7 2.1 4.9 4.5 4.8h36.3v7.9c0 1.1 1.8 1.3 1.8 0l-0.1-37.4h36.9c1.3 0.3 1.5-1.8 0.1-1.7z" fill="currentColor" />
  <path d="m85.4 78.2-7.2-2.5c-0.8-1.3-1.3-3.2-1-4.5 1.8-1.9 2.5-3.5 2.9-5.7 1-0.3 1.7-1.2 1.9-2.2 0.5-2.9 0-4.4-1-4.9 0.5-3.5 1-6.6-1.4-10-3.1-3.9-11-5.5-15.9-1.9-4.2 3.1-4 6-3 12-1.1 0.6-1.4 1.5-1.2 3.2 0.1 2.2 0.9 3.1 2.3 3.7 0.7 3.1 2.3 4.9 3.1 5.8 0.2 1.6-0.2 3.3-0.8 4.5l-8.7 3.2c-1.3 0.5-2.8 2.2-3.4 3.7l-1.6 6.9h-3.8v-48.1h35.6c1.2 0.2 1.5-1.8 0.2-1.8h-36.7c-0.5 0-0.8 0.3-0.8 0.9v49.9c0 0.5 0.4 0.8 0.8 0.8h28.9c1.2 0.1 1.3-1.8 0-1.7h-22.4l1.5-6.6c0.3-1 1.2-2 2.2-2.4l8.5-3.1 6.1 5.1c0.4 0.4 0.9 0.4 1.3 0.1l5.9-5.2 7.1 2.5c1.2 0.7 2.2-0.9 1-1.5l-0.4-0.2zm-21.5-29.1c3.8-3.6 11.2-4.1 14.7-0.2 2 1.9 1.4 5.7 1.1 8.2l-2.7-4.8c-0.2-0.4-0.5-0.6-0.9-0.4l-5.1 1.5-4.9-1.5c-0.4-0.1-0.8 0-1 0.4l-2.8 4.8c-0.3-3.6-0.7-6.2 1.6-8zm-0.3 15.6c0-0.4-0.3-0.8-0.7-0.8-1.4-0.2-1.6-1.3-1.6-3.4 0-0.5 0.7-0.2 1.1-0.3 0.2 0 0.3-0.1 0.6-0.5l3.2-5.9 4.5 1.3 0.5 0.1 4.6-1.3 3.2 5.4c0.2 0.3 0.4 0.7 1.2 0.6 0.2-0.1 0.4 0 0.3 1-0.1 2.1 0 2.7-1.3 3-0.4 0.1-0.6 0.4-0.6 0.8-0.5 3.3-2.5 5.5-5.2 7.5-1.1 0.8-3.8 0.9-4.9 0-3.6-2.6-4.5-4.6-4.9-7.5zm7.5 16.2-5.4-4.6c0.6-1 0.9-2 0.9-3.5 1.3 1 2.4 1.6 4.5 1.6 1.7 0 2.7-0.3 4.4-1.6 0 1.1 0.3 2.4 0.9 3.4l-5.3 4.7z" fill="currentColor" />
  <path d="m74.6 95.9h-28.9c-1.1 0-1.2 1.9 0 1.8h28.9c1.3 0.1 1.4-1.8 0-1.8z" fill="currentColor" />
  <path d="m74.6 102.1h-28.9c-1.1-0.1-1.2 1.8 0 1.8h28.9c1.3 0.1 1.4-1.9 0-1.8z" fill="currentColor" />
  <path d="m95.9 56.1c-0.5 0-0.8 0.4-0.8 0.8v21.6c0 1.3 1.6 1.3 1.6 0v-21.6c0-0.4-0.3-0.8-0.8-0.8z" fill="currentColor" />
  <path d="m91.9 87.5h-6.9c-0.5 0-0.9 0.4-0.9 0.8v6.3c0 0.5 0.4 0.9 0.8 0.9h6.9c0.5 0 1-0.3 1-0.8v-6.4c0-0.4-0.3-0.8-0.9-0.8zm-0.8 6.3h-5.1v-4.7h5.1v4.7z" fill="currentColor" />
  <path d="m116.8 88.2h-19.3c-1.3-0.2-1.5 1.6-0.2 1.7h19.4c1.4 0.1 1.4-1.8 0.1-1.7z" fill="currentColor" />
  <path d="m97.4 94.6h12c1.5 0.1 1.3-1.7-0.1-1.7h-11.9c-1.2-0.1-1.3 1.8 0 1.7z" fill="currentColor" />
  <path d="m91.9 100.2h-6.9c-0.5 0-0.9 0.3-0.9 0.8v7.2c0 0.5 0.4 0.9 0.8 0.9h6.9c0.5 0 1-0.3 1-0.8v-7.3c0-0.5-0.3-0.8-0.9-0.8zm-0.9 7.1h-5v-5.3h5v5.3z" fill="currentColor" />
  <path d="m116.8 101.1h-19.3c-1.4-0.1-1.5 1.8-0.1 1.8l19.4 0.1c1.3 0.2 1.5-1.9 0-1.9z" fill="currentColor" />
  <path d="m97.4 108.1h12c1.5 0.3 1.5-1.8 0-1.8h-12c-1.3-0.1-1.3 1.9 0 1.8z" fill="currentColor" />
  <path d="m91.9 113.7h-7c-0.5 0-0.8 0.4-0.8 0.8v6.3c0 0.4 0.4 0.8 0.8 0.8h6.9c0.5 0 1-0.3 0.9-1.1v-6c0.1-0.4-0.2-0.8-0.8-0.8zm-0.8 6.1h-5.1v-4.5h5.1v4.5z" fill="currentColor" />
  <path d="m116.8 114.5h-19.3c-1.3-0.1-1.4 1.8 0 1.8h19.3c1.5 0 1.1-2 0-1.8z" fill="currentColor" />
  <path d="m109.4 118.8h-12c-1.3-0.2-1.4 1.9 0 1.9h12c1.4 0.1 1.4-2 0-1.9z" fill="currentColor" />
</svg>
